<svg width="60" height="60" viewBox="0 0 60 60" fill="none" xmlns="http://www.w3.org/2000/svg">
<rect width="60" height="60" rx="10" fill="#E9FBF6"/>
<path d="M46.6648 36.6421C45.9794 36.59 44.5563 37.3648 44.1614 37.5585C42.7682 38.2589 40.8459 39.3541 39.5794 40.2258C39.49 40.2854 39.3707 40.3674 39.2813 40.4195C38.7151 40.7846 38.1116 41.0305 37.4411 41.172C33.7605 41.9543 28.3961 42.0437 28.3961 42.0437L28.0832 42.0586C27.8448 42.0735 27.6362 41.9096 27.6064 41.6787C27.5691 41.4254 27.7554 41.1944 28.0162 41.172L35.9957 40.4121C36.8748 40.3152 37.5752 39.4957 37.4783 38.5718C37.3815 37.6479 36.5321 36.9699 35.6529 37.0668L28.56 36.9774C28.0758 36.9699 27.3009 36.8507 26.839 36.7166C22.2644 35.383 19.6865 36.6347 18.3156 37.2158C18.0101 36.7092 17.429 36.3814 16.7808 36.4261L13.7186 36.6272C12.6979 36.6943 11.9305 37.5436 12.005 38.5271L12.4967 45.322C12.5638 46.3054 13.4504 47.043 14.4637 46.976L17.5258 46.7748C18.174 46.7301 18.6956 46.3352 18.9265 45.7914L32.3673 46.3725C33.8648 46.529 35.2655 46.3501 36.5843 45.6572L36.9717 45.4561L47.1267 39.5106C47.6259 39.22 47.9835 38.7134 47.9984 38.1471C48.0282 37.4691 47.6334 36.7092 46.6648 36.6421ZM15.5887 45.3667C15.015 45.3667 14.5456 44.9196 14.5456 44.3609C14.5456 43.8021 15.015 43.355 15.5887 43.355C16.1624 43.355 16.6318 43.8021 16.6318 44.3609C16.6318 44.9196 16.1624 45.3667 15.5887 45.3667Z" fill="#1BC07C"/>
<path d="M39.4304 38.7581C40.4661 38.0354 42.5895 36.8805 43.789 36.277C44.1541 36.0982 44.534 35.912 44.9438 35.7704C44.4223 35.4202 43.8635 35.4053 43.2824 35.6289C42.1424 36.0833 40.0414 37.0966 38.9685 37.6777C38.9611 37.6926 38.9536 37.7075 38.9536 37.7224C39.0281 37.946 39.0877 38.1769 39.1101 38.4153C39.1324 38.6091 39.125 38.7953 39.1175 38.9816C39.2144 38.9071 39.3187 38.8326 39.4304 38.7581Z" fill="#1BC07C"/>
<path d="M42.1723 34.9509C41.6508 34.6156 41.0994 34.6007 40.5332 34.8242C39.8254 35.0999 38.2533 35.614 37.553 35.9865C37.851 36.1728 38.1192 36.4037 38.3502 36.672C38.3949 36.6421 38.4396 36.6049 38.4917 36.5751L39.0058 36.292C39.7509 35.8822 41.3527 35.316 42.1723 34.9509Z" fill="#1BC07C"/>
<path d="M41.1515 21.7336C43.1408 20.8843 44.5415 18.9025 44.5415 16.6002C44.5415 13.5157 42.0381 11.0198 38.9611 11.0198C35.884 11.0198 33.3806 13.5232 33.3806 16.6002C33.3806 16.63 33.3881 16.6598 33.3881 16.6896C36.7035 17.0398 39.5496 18.9844 41.1515 21.7336Z" fill="#1BC07C"/>
<path d="M32.3227 34.9583C36.8005 34.9583 40.4289 31.3299 40.4289 26.8522C40.4289 22.3744 36.8005 18.746 32.3227 18.746C27.845 18.746 24.2166 22.3744 24.2166 26.8522C24.2166 31.3299 27.845 34.9583 32.3227 34.9583ZM29.4915 30.0559C29.566 29.7877 29.6405 29.5194 29.7225 29.2587C29.8193 28.9532 29.9013 28.916 30.1844 29.0575C30.6687 29.3108 31.1753 29.4449 31.7118 29.512C32.0545 29.5567 32.3972 29.5194 32.7101 29.3779C33.3062 29.1171 33.403 28.4242 32.8964 28.0144C32.725 27.8729 32.5313 27.7686 32.3302 27.6792C31.8086 27.4482 31.2647 27.2768 30.7656 26.9788C29.9684 26.502 29.4543 25.8389 29.5139 24.8703C29.5809 23.7677 30.2068 23.0822 31.2126 22.7171C31.6298 22.5681 31.6298 22.5681 31.6373 22.136C31.6373 21.987 31.6373 21.838 31.6373 21.6964C31.6447 21.3686 31.7043 21.309 32.0247 21.3015C32.129 21.3015 32.2259 21.3015 32.3302 21.3015C33.0231 21.3015 33.0231 21.3015 33.0305 21.9944C33.0305 22.4862 33.0305 22.4862 33.5222 22.5681C33.8948 22.6277 34.2598 22.7395 34.6026 22.8885C34.7963 22.9704 34.8633 23.1046 34.8112 23.3057C34.7218 23.6037 34.6398 23.9092 34.543 24.2072C34.4536 24.4904 34.3642 24.5276 34.0885 24.4009C33.5446 24.1402 32.9709 24.0284 32.3749 24.0582C32.2184 24.0657 32.0619 24.088 31.9204 24.1551C31.3989 24.3786 31.3169 24.9523 31.7565 25.3099C31.98 25.4887 32.2333 25.6154 32.5015 25.7271C32.9635 25.9208 33.4254 26.0997 33.8575 26.3381C35.2508 27.1055 35.6233 28.8564 34.6398 30.041C34.2822 30.4731 33.8277 30.7637 33.2913 30.9052C33.0603 30.9723 32.9486 31.0915 32.9635 31.3374C32.9709 31.5758 32.9635 31.8142 32.9635 32.0526C32.9635 32.2687 32.8517 32.3804 32.6431 32.3879C32.3823 32.3953 32.129 32.3953 31.8682 32.3879C31.6447 32.3804 31.533 32.2538 31.533 32.0377C31.533 31.8664 31.533 31.6875 31.5255 31.5162C31.5181 31.1288 31.5106 31.1139 31.1381 31.0543C30.6612 30.9797 30.1993 30.868 29.7597 30.6594C29.4245 30.5029 29.3947 30.4135 29.4915 30.0559Z" fill="#1BC07C"/>
</svg>
