<svg width="60" height="60" viewBox="0 0 60 60" fill="none" xmlns="http://www.w3.org/2000/svg">
<rect width="60" height="60" rx="10" fill="#FBEDE9"/>
<path d="M40.0961 21.4021C38.8537 20.0546 37.149 19.3125 35.2956 19.3125C33.9102 19.3125 32.6415 19.7505 31.5245 20.6142C30.9609 21.0502 30.4503 21.5836 30 22.2061C29.5499 21.5837 29.0391 21.0502 28.4753 20.6142C27.3585 19.7505 26.0898 19.3125 24.7044 19.3125C22.851 19.3125 21.1461 20.0546 19.9037 21.4021C18.6762 22.7338 18 24.5532 18 26.5252C18 28.5549 18.7564 30.4129 20.3804 32.3725C21.8331 34.1254 23.9211 35.9048 26.339 37.9653C27.1646 38.6689 28.1005 39.4666 29.0722 40.3162C29.3289 40.541 29.6583 40.6648 30 40.6648C30.3415 40.6648 30.6711 40.541 30.9274 40.3165C31.8992 39.4667 32.8356 38.6688 33.6616 37.9647C36.0791 35.9046 38.1671 34.1254 39.6198 32.3723C41.2438 30.4129 42 28.5549 42 26.525C42 24.5532 41.3238 22.7338 40.0961 21.4021Z" fill="#E37057"/>
</svg>
