<svg width="60" height="60" viewBox="0 0 60 60" fill="none" xmlns="http://www.w3.org/2000/svg">
<rect width="60" height="60" rx="10" fill="#E5DBFF"/>
<path d="M44.0539 25.6385H15.9462C15.3231 25.6385 14.8385 26.1231 14.8385 26.7462V43.0154C14.8385 44.8154 16.2923 46.2692 18.0923 46.2692H41.9077C43.7077 46.2692 45.1616 44.8154 45.1616 43.0154V26.7462C45.1616 26.1231 44.677 25.6385 44.0539 25.6385ZM24.6 40.8C24.6 41.4231 24.1154 41.9077 23.4923 41.9077H21.3462C20.7231 41.9077 20.2385 41.4231 20.2385 40.8V38.6538C20.2385 38.0308 20.7231 37.5462 21.3462 37.5462H23.4923C24.1154 37.5462 24.6 38.0308 24.6 38.6538V40.8ZM32.1462 40.8C32.1462 41.4231 31.6616 41.9077 31.0385 41.9077H28.8923C28.2693 41.9077 27.7847 41.4231 27.7847 40.8V38.6538C27.7847 38.0308 28.2693 37.5462 28.8923 37.5462H31.0385C31.6616 37.5462 32.1462 38.0308 32.1462 38.6538V40.8ZM32.1462 33.2539C32.1462 33.8769 31.6616 34.3615 31.0385 34.3615H28.8923C28.2693 34.3615 27.7847 33.8769 27.7847 33.2539V31.1077C27.7847 30.4846 28.2693 30 28.8923 30H31.0385C31.6616 30 32.1462 30.4846 32.1462 31.1077V33.2539ZM39.7616 33.2539C39.7616 33.8769 39.277 34.3615 38.6539 34.3615H36.5077C35.8847 34.3615 35.4 33.8769 35.4 33.2539V31.1077C35.4 30.4846 35.8847 30 36.5077 30H38.6539C39.277 30 39.7616 30.4846 39.7616 31.1077V33.2539ZM41.9077 16.9846H39.2077V15.8769C39.2077 14.7 38.2385 13.7308 37.0616 13.7308C35.8847 13.7308 34.9154 14.7 34.9154 15.8769V16.9846H25.1539V15.8769C25.1539 14.7 24.1847 13.7308 23.0077 13.7308C21.8308 13.7308 20.8616 14.7 20.8616 15.8769V16.9846H18.0923C16.2923 16.9846 14.8385 18.4385 14.8385 20.2385V21.3462C14.8385 21.9692 15.3231 22.4539 15.9462 22.4539H44.1231C44.7462 22.4539 45.2308 21.9692 45.2308 21.3462V20.2385C45.1616 18.4385 43.7077 16.9846 41.9077 16.9846Z" fill="#9960E0"/>
</svg>
