<svg width="60" height="60" viewBox="0 0 60 60" fill="none" xmlns="http://www.w3.org/2000/svg">
<rect width="60" height="60" rx="10" fill="#EDF4FF"/>
<path d="M24.7413 21.9957L27.664 15.9108L28.9989 13.1315L28.7838 12.6827C28.584 12.2656 28.1622 12 27.6992 12H19.1842C18.7705 12 18.3864 12.2127 18.1654 12.5629C17.9457 12.913 17.921 13.3514 18.0996 13.7238L23.4076 24.7747L24.7413 21.9957Z" fill="#2F71D3"/>
<path d="M41.8347 12.5629C41.6138 12.2127 41.2295 12 40.8158 12H32.3021C31.8392 12 31.4172 12.2656 31.2175 12.6827L24.6427 26.373C24.6379 26.3836 24.6367 26.3941 24.632 26.4047C24.6215 26.4282 24.6167 26.4541 24.6073 26.4788C24.5651 26.593 24.5405 26.7139 24.5345 26.8419C24.5333 26.8596 24.5239 26.8748 24.5239 26.8938V27.5141C26.1585 26.6585 28.0141 26.1673 29.9835 26.1673C31.9543 26.1673 33.8086 26.6586 35.4444 27.5153V27.1675L41.9005 13.724C42.0791 13.3514 42.0544 12.9131 41.8347 12.5629Z" fill="#2F71D3"/>
<path d="M29.9835 27.9724C24.4522 27.9724 19.969 32.4554 19.969 37.9868C19.969 43.5169 24.4522 48 29.9835 48C35.5136 48 39.9969 43.5169 39.9969 37.9868C39.9969 32.4554 35.5136 27.9724 29.9835 27.9724ZM35.9356 36.2382L33.2622 38.8458C33.1787 38.928 33.1399 39.0456 33.1599 39.1607L33.7911 42.8425C33.8133 42.9752 33.758 43.1103 33.6488 43.1902C33.5396 43.2701 33.3938 43.2796 33.2751 43.2172L29.9684 41.4795C29.865 41.4251 29.7404 41.4251 29.6368 41.4795L26.3302 43.2172C26.2114 43.2796 26.0657 43.2701 25.9565 43.1902C25.8472 43.1103 25.792 42.9751 25.8144 42.8425L26.4455 39.1607C26.4653 39.0457 26.4265 38.928 26.3432 38.8458L23.6697 36.2382C23.5723 36.1429 23.5382 36.002 23.5793 35.8739C23.6217 35.7445 23.7333 35.6506 23.8661 35.6318L27.5641 35.0947C27.6793 35.0782 27.7793 35.0055 27.8309 34.8997L29.4844 31.5506C29.5444 31.4295 29.6678 31.3519 29.8029 31.3519C29.938 31.3519 30.0612 31.4295 30.1212 31.5506L31.7747 34.8997C31.8263 35.0055 31.9262 35.0782 32.0416 35.0947L35.7396 35.6318C35.8723 35.6506 35.9841 35.7445 36.0264 35.8739C36.0673 36.002 36.033 36.1429 35.9356 36.2382Z" fill="#2F71D3"/>
</svg>
