<svg width="30" height="32" viewBox="0 0 30 32" fill="none" xmlns="http://www.w3.org/2000/svg">
<g clip-path="url(#clip0_77_129)">
<path d="M15 31.9755C23.2843 31.9755 30 24.957 30 16.2992C30 7.64148 23.2843 0.622986 15 0.622986C6.71573 0.622986 0 7.64148 0 16.2992C0 24.957 6.71573 31.9755 15 31.9755Z" fill="#7AA5DA"/>
<path d="M29.9955 15.9365L23.3369 8.98926L12.4907 22.8058L20.3003 30.9675C25.9686 28.7293 30 23.0066 30 16.2992C30 16.1779 29.9982 16.057 29.9955 15.9365Z" fill="#5786B5"/>
<path d="M22.4835 8.79914C23.0815 8.5553 23.6997 9.10214 23.5684 9.7587L20.8866 23.1558C20.7613 23.7839 20.0552 24.0668 19.5603 23.6868L15.5118 20.5811L13.4482 22.7832C13.0856 23.1696 12.4603 23.0123 12.3047 22.4971L10.8159 17.5578L6.82494 16.3258C6.30071 16.1643 6.27041 15.4022 6.77848 15.1942L22.4835 8.79914ZM20.5148 11.7718C20.6896 11.6103 20.4865 11.3253 20.2886 11.4541L11.6744 17.0373C11.5229 17.1355 11.4532 17.3287 11.5067 17.5071L12.6814 22.8982C12.7047 22.9806 12.8178 22.9689 12.8279 22.8835L13.0905 18.7749C13.1006 18.6736 13.1471 18.5807 13.2199 18.5132L20.5148 11.7718Z" fill="white"/>
<path d="M20.2885 11.454C20.4865 11.3253 20.6895 11.6103 20.5148 11.7718L13.2198 18.5131C13.1471 18.5807 13.1007 18.6736 13.0905 18.7749L12.8279 22.8834C12.8178 22.9689 12.7047 22.9806 12.6814 22.8982L11.5067 17.507C11.4531 17.3287 11.5228 17.1355 11.6744 17.0373L20.2885 11.454Z" fill="#9EC2E5"/>
<path d="M12.7239 22.9542C12.534 22.8835 12.3734 22.7251 12.3047 22.4971L10.8159 17.5577L6.82494 16.3258C6.30071 16.1642 6.27041 15.4021 6.77848 15.1941L22.4835 8.79914C22.8693 8.64183 23.2643 8.8139 23.4592 9.13275C23.4229 9.0747 23.3794 9.02088 23.331 8.97336L12.6764 18.0634V18.4614L12.6178 18.4171L12.6764 20.9232V22.9331C12.6916 22.9405 12.7077 22.9468 12.7239 22.9521V22.9542H12.7239Z" fill="white"/>
<path d="M23.5854 9.53385C23.5884 9.60561 23.5834 9.68161 23.5682 9.7587L20.8864 23.1558C20.7611 23.7839 20.055 24.0668 19.5601 23.6868L15.5116 20.5811L12.6763 18.4614V18.0634L23.3308 8.9733C23.3793 9.02082 23.4228 9.07464 23.4591 9.13269C23.4662 9.14537 23.4732 9.15694 23.4803 9.16858C23.4863 9.18125 23.4934 9.19393 23.4995 9.2055C23.5056 9.21818 23.5117 9.23085 23.5167 9.24353C23.5227 9.25725 23.5278 9.26992 23.5329 9.28364C23.5369 9.29527 23.542 9.30789 23.546 9.32166C23.5591 9.36281 23.5692 9.40507 23.5763 9.4494C23.5803 9.47684 23.5834 9.50433 23.5854 9.53385Z" fill="#D1D1D1"/>
<path d="M15.5116 20.5811L13.4479 22.7832C13.4308 22.8011 13.4126 22.8191 13.3944 22.8349C13.3762 22.8508 13.358 22.8645 13.3388 22.8782C13.3379 22.8793 13.3379 22.8793 13.3379 22.8793C13.2995 22.9057 13.2601 22.9278 13.2187 22.9458C13.1975 22.9542 13.1772 22.9627 13.156 22.968C13.0681 22.9954 12.9783 23.0028 12.8894 22.9933C12.8662 22.9912 12.8429 22.987 12.8207 22.9828C12.8177 22.9828 12.8147 22.9817 12.8116 22.9807C12.7894 22.9744 12.7671 22.968 12.7449 22.9606C12.7379 22.9585 12.7308 22.9564 12.7237 22.9522L12.6763 20.9232V18.4615L15.5116 20.5811Z" fill="#D1D1D1"/>
<path d="M13.3944 22.8349C13.3763 22.8508 13.358 22.8656 13.3389 22.8794V22.8783C13.3581 22.8646 13.3763 22.8508 13.3944 22.8349Z" fill="#DADDE0"/>
<path d="M13.3401 22.8781V22.8804C13.3401 22.8804 13.3401 22.8781 13.3379 22.8804C13.3379 22.8804 13.3379 22.8804 13.3401 22.8781Z" fill="#DADDE0"/>
<path d="M13.2188 22.9455C13.2602 22.9276 13.2996 22.9055 13.3379 22.8792C13.2996 22.9054 13.2591 22.9276 13.2188 22.9455Z" fill="#DADDE0"/>
<path d="M12.8894 22.9929C12.9783 23.0023 13.0682 22.995 13.1561 22.9678C13.0924 22.9887 13.0267 22.9981 12.9611 22.9981C12.9409 22.9981 12.9207 22.9971 12.9015 22.995C12.8975 22.995 12.8934 22.995 12.8894 22.9929Z" fill="#DADDE0"/>
<path d="M12.9612 22.9983C12.941 22.9983 12.9208 22.9973 12.9016 22.9952C12.9208 22.9973 12.941 22.9983 12.9612 22.9983Z" fill="white"/>
<path d="M12.8895 22.993C12.8936 22.995 12.8976 22.995 12.9017 22.995C12.8804 22.994 12.8612 22.9909 12.8411 22.9869C12.8572 22.99 12.8733 22.992 12.8895 22.993Z" fill="white"/>
<path d="M12.8895 22.9927C12.8733 22.9917 12.8571 22.9897 12.841 22.9867C12.8339 22.9857 12.8269 22.9847 12.8208 22.9827C12.843 22.9867 12.8662 22.9908 12.8895 22.9927Z" fill="#DADDE0"/>
<path d="M12.7451 22.9605C12.7673 22.9676 12.7896 22.9737 12.8118 22.9798C12.8027 22.9778 12.7936 22.9757 12.7846 22.9737C12.7805 22.9727 12.7765 22.9717 12.7734 22.9697C12.7643 22.9676 12.7542 22.9646 12.7451 22.9605Z" fill="#DADDE0"/>
<path d="M12.7847 22.974C12.7938 22.976 12.8028 22.978 12.8119 22.98C12.8028 22.979 12.7938 22.977 12.7847 22.974Z" fill="white"/>
<path d="M12.7452 22.9603C12.7543 22.9643 12.7644 22.9674 12.7735 22.9694C12.7583 22.9663 12.7432 22.9613 12.728 22.9553C12.7341 22.9573 12.7391 22.9593 12.7452 22.9603Z" fill="white"/>
<path d="M12.7451 22.9602C12.7391 22.9592 12.734 22.9571 12.7279 22.9551C12.7269 22.9561 12.7249 22.9551 12.7239 22.9541V22.9521C12.7309 22.9561 12.738 22.9581 12.7451 22.9602Z" fill="#DADDE0"/>
<path d="M12.6763 20.9232L12.7237 22.9521C12.7076 22.9468 12.6914 22.9405 12.6763 22.9331V20.9232Z" fill="#D1D1D1"/>
<path d="M12.6763 18.4614V20.9232L12.6177 18.4171L12.6763 18.4614Z" fill="#DADDE0"/>
<path d="M20.5148 11.7718L13.2198 18.5132C13.1471 18.5807 13.1007 18.6736 13.0905 18.7749L12.8284 22.8838C12.8183 22.9693 12.7051 22.9809 12.6809 22.8986L11.5067 17.5071C11.4531 17.3287 11.5228 17.1355 11.6744 17.0374L20.2885 11.4541C20.4865 11.3253 20.6895 11.6103 20.5148 11.7718Z" fill="#ADBCC9"/>
</g>
<defs>
<clipPath id="clip0_77_129">
<rect width="30" height="31.3525" fill="white" transform="translate(0 0.622986)"/>
</clipPath>
</defs>
</svg>
