<svg width="30" height="30" viewBox="4 0 30 30" fill="none" xmlns="http://www.w3.org/2000/svg">
<g filter="url(#filter0_d_77_105)">
<path d="M19 30C27.2843 30 34 23.2843 34 15C34 6.71573 27.2843 0 19 0C10.7157 0 4 6.71573 4 15C4 23.2843 10.7157 30 19 30Z" fill="#6F3FAA"/>
<path d="M25.5076 8.22909C21.8565 7.34726 18.1989 6.31577 14.4546 7.62628C12.0304 8.53536 12.0304 11.1617 12.1314 13.3839C12.1314 13.9899 11.4243 14.798 11.7273 15.5051C12.3334 17.5253 12.8384 19.5455 14.9597 20.5556C15.2627 20.7576 14.9597 21.1616 15.1617 21.4647C15.0607 21.4647 14.8586 21.5657 14.8586 21.6667C14.8586 22.1508 15.0759 22.8914 14.9316 23.3688L21.3773 29.8118C28.0036 28.7565 33.1826 23.3625 33.9113 16.6328L25.5076 8.22909Z" fill="#512D84"/>
<path d="M26.9351 10.5424L26.9302 10.5226C26.5294 8.90234 24.7225 7.16374 23.0631 6.80205L23.0445 6.79818C20.3605 6.28619 17.6391 6.28619 14.9558 6.79818L14.9365 6.80205C13.2777 7.16374 11.4707 8.90246 11.0694 10.5226L11.065 10.5424C10.5695 12.8052 10.5695 15.0999 11.065 17.3626L11.0694 17.3824C11.4537 18.9335 13.126 20.5923 14.7234 21.0485V22.8571C14.7234 23.5118 15.5212 23.8333 15.9748 23.3609L17.8073 21.4561C18.2048 21.4783 18.6025 21.4907 19.0001 21.4907C20.3511 21.4907 21.7027 21.3629 23.0444 21.1069L23.0631 21.1031C24.7225 20.7414 26.5294 19.0027 26.9302 17.3825L26.9351 17.3627C27.4305 15.0999 27.4305 12.8053 26.9351 10.5424ZM25.4849 17.0346C25.2173 18.0917 23.8454 19.4058 22.7553 19.6486C21.3282 19.92 19.8898 20.036 18.4529 19.9962C18.4243 19.9954 18.3968 20.0065 18.3769 20.027C18.173 20.2363 17.0389 21.4006 17.0389 21.4006L15.6158 22.8612C15.5118 22.9697 15.3289 22.8958 15.3289 22.7461V19.7499C15.3289 19.7003 15.2936 19.6583 15.245 19.6487C15.2447 19.6486 15.2445 19.6486 15.2442 19.6486C14.1541 19.4057 12.7826 18.0916 12.5146 17.0345C12.0686 14.9892 12.0686 12.9158 12.5146 10.8706C12.7826 9.81347 14.1541 8.49933 15.2442 8.25652C17.7365 7.78249 20.2635 7.78249 22.7554 8.25652C23.846 8.49933 25.2173 9.81347 25.4849 10.8706C25.9314 12.9159 25.9314 14.9893 25.4849 17.0346Z" fill="white"/>
<path d="M21.3711 18.4176C21.2036 18.3667 21.0439 18.3325 20.8955 18.2711C19.3585 17.6334 17.9441 16.8107 16.8237 15.5497C16.1865 14.8327 15.6878 14.0231 15.2663 13.1663C15.0664 12.76 14.8979 12.3379 14.7262 11.9183C14.5696 11.5358 14.8003 11.1407 15.0431 10.8524C15.2709 10.5819 15.5642 10.3749 15.8818 10.2223C16.1296 10.1032 16.3741 10.1719 16.5551 10.3819C16.9464 10.8362 17.306 11.3136 17.5969 11.8401C17.7759 12.1639 17.7268 12.5598 17.4024 12.7802C17.3235 12.8337 17.2517 12.8967 17.1783 12.9571C17.1138 13.0102 17.0533 13.0637 17.0091 13.1355C16.9284 13.2668 16.9245 13.4218 16.9764 13.5646C17.3765 14.6638 18.0507 15.5187 19.1572 15.9792C19.3343 16.0529 19.5121 16.1386 19.7161 16.1149C20.0577 16.075 20.1683 15.7002 20.4077 15.5044C20.6417 15.3131 20.9408 15.3106 21.1928 15.4701C21.4449 15.6297 21.6892 15.8009 21.9322 15.9741C22.1707 16.144 22.408 16.3101 22.6279 16.5039C22.8394 16.6901 22.9123 16.9345 22.7932 17.1872C22.5752 17.6501 22.2579 18.0352 21.8003 18.281C21.6711 18.3503 21.5168 18.3727 21.3711 18.4176C21.2036 18.3667 21.5168 18.3727 21.3711 18.4176Z" fill="white"/>
<path d="M19.0041 9.69293C21.0144 9.7493 22.6657 11.0834 23.0195 13.0709C23.0798 13.4096 23.1012 13.7558 23.1281 14.0995C23.1394 14.2441 23.0575 14.3814 22.9015 14.3834C22.7404 14.3853 22.6679 14.2504 22.6573 14.106C22.6367 13.8199 22.6223 13.5325 22.5829 13.2489C22.3748 11.7513 21.1807 10.5124 19.69 10.2465C19.4657 10.2065 19.2362 10.196 19.0089 10.1722C18.8653 10.1571 18.6772 10.1484 18.6454 9.96985C18.6188 9.82014 18.7451 9.70096 18.8877 9.69329C18.9263 9.691 18.9652 9.69282 19.0041 9.69293C21.0145 9.7493 18.9652 9.69282 19.0041 9.69293Z" fill="white"/>
<path d="M22.0593 13.6535C22.0559 13.6786 22.0542 13.7376 22.0395 13.7932C21.9861 13.995 21.6801 14.0202 21.6097 13.8166C21.5888 13.7562 21.5857 13.6874 21.5855 13.6224C21.5848 13.1966 21.4923 12.7712 21.2776 12.4007C21.0568 12.0199 20.7196 11.7 20.3241 11.5062C20.085 11.3891 19.8264 11.3163 19.5642 11.273C19.4497 11.254 19.3339 11.2426 19.2188 11.2265C19.0793 11.2071 19.0047 11.1182 19.0114 10.9808C19.0176 10.852 19.1117 10.7592 19.2521 10.7673C19.7134 10.7934 20.1591 10.8932 20.5693 11.1104C21.4033 11.5521 21.8798 12.2493 22.0189 13.1803C22.0252 13.2225 22.0352 13.2642 22.0385 13.3065C22.0463 13.411 22.0513 13.5155 22.0593 13.6535C22.0559 13.6785 22.0513 13.5155 22.0593 13.6535Z" fill="white"/>
<path d="M20.8089 13.6048C20.6407 13.6078 20.5507 13.5147 20.5333 13.3606C20.5213 13.2531 20.5117 13.1441 20.486 13.0395C20.4355 12.8334 20.326 12.6425 20.1527 12.5162C20.0709 12.4566 19.9781 12.4132 19.881 12.3851C19.7577 12.3494 19.6295 12.3593 19.5065 12.3291C19.3729 12.2964 19.2989 12.1881 19.3199 12.0628C19.3391 11.9486 19.45 11.8596 19.5748 11.8686C20.3542 11.9249 20.9112 12.3278 20.9908 13.2454C20.9964 13.3102 21.003 13.3786 20.9886 13.4406C20.9639 13.5465 20.8854 13.5996 20.8089 13.6048C20.6407 13.6078 20.8854 13.5996 20.8089 13.6048Z" fill="white"/>
<path d="M26.9352 10.5424L26.9303 10.5226C26.7057 9.61436 26.039 8.669 25.2042 7.94971L24.0758 8.94978C24.7468 9.48445 25.3217 10.2251 25.4851 10.8705C25.9316 12.9158 25.9316 14.9892 25.4851 17.0345C25.2175 18.0916 23.8455 19.4058 22.7555 19.6486C21.3284 19.92 19.89 20.036 18.4531 19.9962C18.4245 19.9954 18.397 20.0065 18.3771 20.027C18.1732 20.2363 17.0392 21.4005 17.0392 21.4005L15.616 22.8612C15.512 22.9697 15.3292 22.8959 15.3292 22.7461V19.7498C15.3292 19.7003 15.2938 19.6583 15.2452 19.6487C15.2449 19.6487 15.2447 19.6486 15.2444 19.6486C14.6249 19.5106 13.9148 19.0264 13.3677 18.4403L12.2527 19.4284C12.9491 20.186 13.8473 20.7984 14.7235 21.0486V22.8572C14.7235 23.5119 15.5212 23.8334 15.9749 23.361L17.8074 21.4562C18.2049 21.4784 18.6024 21.4908 19.0001 21.4908C20.3511 21.4908 21.7027 21.363 23.0444 21.107L23.0631 21.1032C24.7225 20.7415 26.5294 19.0029 26.9302 17.3827L26.9351 17.3629C27.4306 15.0999 27.4306 12.8053 26.9352 10.5424Z" fill="#D1D1D1"/>
<path d="M21.3714 18.4176C21.517 18.3727 21.2038 18.3667 21.3714 18.4176V18.4176Z" fill="white"/>
<path d="M22.6281 16.5038C22.4082 16.3101 22.1708 16.1439 21.9324 15.9739C21.6895 15.8008 21.4451 15.6296 21.193 15.47C20.941 15.3105 20.642 15.313 20.408 15.5043C20.1685 15.7001 20.058 16.0748 19.7163 16.1147C19.5124 16.1385 19.3345 16.0527 19.1575 15.9791C18.4767 15.6959 17.9601 15.2627 17.5697 14.7159L16.74 15.4512C16.7682 15.4839 16.7951 15.5174 16.8237 15.5496C17.9442 16.8106 19.3587 17.6333 20.8955 18.2709C21.0438 18.3325 21.2036 18.3667 21.3712 18.4175C21.2036 18.3666 21.517 18.3727 21.3712 18.4175C21.517 18.3727 21.6712 18.3501 21.8005 18.2808C22.2582 18.035 22.5753 17.6499 22.7933 17.187C22.9125 16.9344 22.8397 16.69 22.6281 16.5038Z" fill="#D1D1D1"/>
<path d="M19.0104 9.69332C19.0084 9.69332 19.0064 9.69311 19.0043 9.69311C19.0023 9.69297 19.0049 9.69311 19.0104 9.69332Z" fill="white"/>
<path d="M19.0046 9.69293C19.0063 9.69293 19.008 9.69311 19.0097 9.69311C19.1212 9.69709 20.9358 9.74707 19.0046 9.69293Z" fill="white"/>
<path d="M21.8879 10.8889L21.5342 11.2024C22.0901 11.7432 22.4734 12.46 22.583 13.2488C22.6223 13.5325 22.6368 13.8198 22.6575 14.1059C22.668 14.2504 22.7404 14.3852 22.9016 14.3834C23.0577 14.3814 23.1395 14.2441 23.1282 14.0995C23.1013 13.7558 23.0799 13.4095 23.0196 13.0709C22.8648 12.2009 22.4613 11.4561 21.8879 10.8889Z" fill="#D1D1D1"/>
<path d="M22.0188 13.18C21.9175 12.5016 21.6361 11.948 21.1687 11.5263L20.8159 11.8389C20.9983 12.0008 21.1561 12.1909 21.2776 12.4006C21.4924 12.7711 21.5849 13.1965 21.5856 13.6222C21.5857 13.6873 21.5888 13.7561 21.6097 13.8166C21.6802 14.0203 21.9862 13.9951 22.0395 13.7932C22.0543 13.7375 22.056 13.6785 22.0593 13.6535C22.056 13.6786 22.0513 13.5156 22.0593 13.6535C22.0513 13.5156 22.0463 13.4109 22.0384 13.3064C22.0353 13.2639 22.0252 13.2222 22.0188 13.18Z" fill="#D1D1D1"/>
<path d="M22.0593 13.6535C22.0514 13.5155 22.056 13.6785 22.0593 13.6535V13.6535Z" fill="white"/>
<path d="M20.8095 13.6048C20.8122 13.6047 20.8148 13.6033 20.8173 13.603C20.8101 13.603 20.7989 13.6031 20.7874 13.6036C20.7948 13.6037 20.8016 13.6049 20.8095 13.6048Z" fill="white"/>
<path d="M20.8089 13.6049C20.8013 13.605 20.7947 13.6039 20.7874 13.6037C20.751 13.6047 20.7135 13.6066 20.8089 13.6049Z" fill="white"/>
<path d="M20.8167 13.603C20.814 13.6033 20.8114 13.6047 20.8088 13.6048C20.8291 13.6034 20.8273 13.603 20.8167 13.603Z" fill="white"/>
<path d="M20.454 12.1597L20.095 12.4779C20.1148 12.49 20.1342 12.5025 20.153 12.5162C20.3263 12.6424 20.4358 12.8333 20.4863 13.0394C20.512 13.144 20.5215 13.2529 20.5336 13.3605C20.5502 13.5077 20.6338 13.5983 20.7877 13.6035C20.7989 13.6032 20.8099 13.603 20.8168 13.6029C20.8909 13.5947 20.9651 13.5428 20.9889 13.4404C21.0032 13.3785 20.9967 13.31 20.991 13.2452C20.9463 12.7322 20.7524 12.3803 20.454 12.1597Z" fill="#D1D1D1"/>
</g>
<defs>
<filter id="filter0_d_77_105" x="0" y="0" width="38" height="38" filterUnits="userSpaceOnUse" color-interpolation-filters="sRGB">
<feFlood flood-opacity="0" result="BackgroundImageFix"/>
<feColorMatrix in="SourceAlpha" type="matrix" values="0 0 0 0 0 0 0 0 0 0 0 0 0 0 0 0 0 0 127 0" result="hardAlpha"/>
<feOffset dy="4"/>
<feGaussianBlur stdDeviation="2"/>
<feComposite in2="hardAlpha" operator="out"/>
<feColorMatrix type="matrix" values="0 0 0 0 0 0 0 0 0 0 0 0 0 0 0 0 0 0 0.25 0"/>
<feBlend mode="normal" in2="BackgroundImageFix" result="effect1_dropShadow_77_105"/>
<feBlend mode="normal" in="SourceGraphic" in2="effect1_dropShadow_77_105" result="shape"/>
</filter>
</defs>
</svg>
