<svg width="30" height="32" viewBox="0 0 30 32" fill="none" xmlns="http://www.w3.org/2000/svg">
<g clip-path="url(#clip0_77_171)">
<path d="M15 31.9755C23.2843 31.9755 30 24.957 30 16.2992C30 7.64148 23.2843 0.622986 15 0.622986C6.71573 0.622986 0 7.64148 0 16.2992C0 24.957 6.71573 31.9755 15 31.9755Z" fill="#75B73B"/>
<path d="M21.1079 9.9201C20.2382 9.69279 18.9592 8.90775 18.1314 8.59306C14.899 7.53743 10.5556 8.38193 9.34347 12.2878C9.24245 12.3934 9.04042 12.3934 8.9394 12.3934C6.51515 15.3492 8.13134 18.9383 7.92931 22.2108C7.86034 23.3644 7.27991 24.3845 6.53296 25.2474L12.819 31.81C13.5312 31.9183 14.2591 31.9755 15 31.9755C22.4084 31.9755 28.5617 26.3623 29.7801 18.9837L21.1079 9.9201Z" fill="#52891D"/>
<path d="M14.5803 7.26376C10.0082 7.49107 6.40033 11.4704 6.4141 16.2538C6.41832 17.7107 6.75488 19.0859 7.34867 20.3011L6.43713 24.9253C6.38785 25.1755 6.60371 25.3945 6.84148 25.3356L11.1771 24.2621C12.2911 24.8421 13.5422 25.1769 14.8663 25.1981C19.5393 25.2727 23.4357 21.395 23.5815 16.5131C23.7375 11.2801 19.6049 7.01362 14.5803 7.26376ZM19.7537 21.1941C18.484 22.521 16.7957 23.2519 15 23.2519C13.9486 23.2519 12.9418 23.0053 12.0078 22.5191L11.4042 22.2048L8.74578 22.8629L9.30529 20.0242L9.00793 19.4154C8.52301 18.423 8.27715 17.35 8.27715 16.226C8.27715 14.3492 8.97646 12.585 10.2461 11.258C11.5045 9.94275 13.2203 9.20021 15.0001 9.20021C16.7956 9.20021 18.4839 9.93105 19.7536 11.258C21.0233 12.5849 21.7226 14.3493 21.7226 16.2258C21.7227 18.0859 21.0121 19.879 19.7537 21.1941Z" fill="white"/>
<path d="M19.1668 18.1719L17.5037 17.6729C17.2852 17.6075 17.0496 17.6723 16.8903 17.8419L16.4835 18.2749C16.3121 18.4576 16.0519 18.5162 15.8249 18.4202C15.0382 18.0875 13.3832 16.5496 12.9608 15.7806C12.8387 15.5587 12.8589 15.2814 13.0087 15.0788L13.3637 14.5987C13.5028 14.4107 13.5321 14.158 13.4401 13.9406L12.7405 12.2868C12.5729 11.8907 12.0885 11.7754 11.7721 12.0551C11.308 12.4654 10.7572 13.0887 10.6904 13.7795C10.5723 14.9972 11.0721 16.5322 12.9616 18.3755C15.1446 20.5051 16.8929 20.7863 18.0313 20.4981C18.6769 20.3348 19.1929 19.6797 19.5183 19.1433C19.7405 18.7772 19.5649 18.2915 19.1668 18.1719Z" fill="white"/>
<path d="M20.8597 9.66794L19.5575 11.0628C19.6238 11.1267 19.6898 11.1911 19.7539 11.2582C21.0236 12.5851 21.7229 14.3495 21.7229 16.226C21.7229 18.086 21.0123 19.8791 19.7539 21.1943C18.4842 22.5212 16.7959 23.252 15.0002 23.252C13.9488 23.252 12.9421 23.0054 12.008 22.5193L11.4044 22.2049L8.74601 22.863L8.80097 22.5842L6.44702 25.1054C6.49894 25.2684 6.66411 25.3794 6.84159 25.3355L11.1772 24.262C12.2912 24.842 13.5423 25.1768 14.8664 25.198C19.5394 25.2726 23.4359 21.3949 23.5817 16.513C23.6622 13.8104 22.5989 11.3658 20.8597 9.66794Z" fill="#D1D1D1"/>
<path d="M19.1671 18.1719L17.5039 17.6729C17.2854 17.6075 17.0499 17.6723 16.8906 17.8419L16.4838 18.2749C16.3124 18.4576 16.0522 18.5162 15.8252 18.4202C15.3708 18.228 14.6269 17.6337 13.998 17.0177L12.8418 18.2562C12.8815 18.2959 12.921 18.3355 12.9619 18.3755C15.1449 20.5051 16.8932 20.7862 18.0316 20.4981C18.6773 20.3348 19.1932 19.6797 19.5187 19.1432C19.7407 18.7772 19.5652 18.2915 19.1671 18.1719Z" fill="#D1D1D1"/>
</g>
<defs>
<clipPath id="clip0_77_171">
<rect width="30" height="31.3525" fill="white" transform="translate(0 0.622986)"/>
</clipPath>
</defs>
</svg>
